# xmcd
#
# Track frame offsets:
#	150
#	15408
#	30229
#	47650
#	63371
#	81027
#	97969
#	115087
#	133081
#	148941
#	166041
#	182282
#	200061
#	217287
#	235248
#	252536
#	270271
#	284779
#	300091
#	316060
#
# Disc length: 4468 seconds
#
# Revision: 0
# Processed by: cddbd v1.5.1PL0 Copyright (c) Steve Scherf et al.
# Submitted via: dBpowerAMP V4.0
#
DISCID=0f117214
DTITLE=piano hits - piano
DYEAR=2005
DGENRE=Blues
TTITLE0=A01
TTITLE1=A02
TTITLE2=A03
TTITLE3=A04
TTITLE4=A05
TTITLE5=A06
TTITLE6=A07
TTITLE7=A08
TTITLE8=A09
TTITLE9=A10
TTITLE10=A11
TTITLE11=A12
TTITLE12=A13
TTITLE13=A14
TTITLE14=A15
TTITLE15=A16
TTITLE16=A17
TTITLE17=A18
TTITLE18=A19
TTITLE19=A20
EXTD=
EXTT0=
EXTT1=
EXTT2=
EXTT3=
EXTT4=
EXTT5=
EXTT6=
EXTT7=
EXTT8=
EXTT9=
EXTT10=
EXTT11=
EXTT12=
EXTT13=
EXTT14=
EXTT15=
EXTT16=
EXTT17=
EXTT18=
EXTT19=
PLAYORDER=
